<?xml version="1.0" encoding="UTF-8"?>
<svg xmlns="http://www.w3.org/2000/svg" xmlns:xlink="http://www.w3.org/1999/xlink" width="1440pt" height="809.999993pt" viewBox="0 0 1440 809.999993" version="1.2">
<defs>
<filter id="alpha" filterUnits="objectBoundingBox" x="0%" y="0%" width="100%" height="100%">
  <feColorMatrix type="matrix" in="SourceGraphic" values="0 0 0 0 1 0 0 0 0 1 0 0 0 0 1 0 0 0 1 0"/>
</filter>
<mask id="mask0">
  <g filter="url(#alpha)">
<rect x="0" y="0" width="1440" height="809.999993" style="fill:rgb(0%,0%,0%);fill-opacity:0.498;stroke:none;"/>
  </g>
</mask>
<clipPath id="clip2">
  <path d="M 15 37 L 278 37 L 278 276 L 15 276 Z M 15 37 "/>
</clipPath>
<clipPath id="clip3">
  <path d="M 92.121094 0.0195312 L 302.15625 104.863281 L 210.710938 288.058594 L 0.675781 183.214844 Z M 92.121094 0.0195312 "/>
</clipPath>
<clipPath id="clip4">
  <path d="M 92.121094 0.0195312 L 302.15625 104.863281 L 210.710938 288.058594 L 0.675781 183.214844 Z M 92.121094 0.0195312 "/>
</clipPath>
<clipPath id="clip5">
  <path d="M 92.121094 0.0195312 L 301.90625 104.738281 L 210.601562 287.648438 L 0.816406 182.933594 Z M 92.121094 0.0195312 "/>
</clipPath>
<clipPath id="clip1">
  <rect x="0" y="0" width="303" height="290"/>
</clipPath>
<g id="surface5" clip-path="url(#clip1)">
<g clip-path="url(#clip2)" clip-rule="nonzero">
<g clip-path="url(#clip3)" clip-rule="nonzero">
<g clip-path="url(#clip4)" clip-rule="nonzero">
<g clip-path="url(#clip5)" clip-rule="nonzero">
<path style=" stroke:none;fill-rule:nonzero;fill:rgb(0%,0%,0%);fill-opacity:1;" d="M 262.878906 124.394531 L 241.402344 113.671875 C 241.015625 108.652344 238.183594 103.9375 233.492188 101.382812 L 233.652344 101.058594 C 240.347656 87.644531 234.875 71.28125 221.453125 64.578125 L 172.574219 40.179688 C 159.148438 33.480469 142.78125 38.941406 136.085938 52.355469 L 135.921875 52.679688 C 131.058594 50.464844 125.589844 51.035156 121.347656 53.742188 L 99.867188 43.023438 C 87.027344 36.613281 71.371094 41.835938 64.964844 54.667969 L 54.035156 76.5625 C 50.089844 84.46875 48.148438 92.707031 48.257812 101.082031 L 18.9375 159.820312 C 11.851562 174.019531 17.644531 191.339844 31.855469 198.433594 L 179.558594 272.164062 C 193.765625 279.253906 211.09375 273.472656 218.179688 259.273438 L 247.5 200.539062 C 254.257812 195.589844 259.675781 189.085938 263.621094 181.183594 L 274.550781 159.289062 C 280.957031 146.457031 275.722656 130.804688 262.878906 124.394531 Z M 147.40625 64.644531 L 150.058594 59.332031 C 152.910156 53.613281 159.882812 51.289062 165.605469 54.140625 L 214.480469 78.539062 C 220.203125 81.394531 222.535156 88.367188 219.679688 94.082031 L 217.027344 99.398438 C 216.738281 99.976562 216.523438 100.570312 216.355469 101.167969 L 146.390625 66.246094 C 146.769531 65.75 147.117188 65.222656 147.40625 64.644531 Z M 78.9375 61.644531 C 81.5 56.511719 87.761719 54.421875 92.898438 56.984375 L 255.910156 138.355469 C 261.046875 140.917969 263.140625 147.179688 260.578125 152.3125 L 249.648438 174.207031 C 246.589844 180.335938 242.351562 185.246094 237.042969 188.804688 L 236.390625 189.242188 C 224.582031 195.929688 209.203125 195.996094 193.890625 188.351562 L 163.65625 173.257812 L 164.4375 171.691406 C 167.144531 166.269531 164.929688 159.65625 159.507812 156.949219 L 135.980469 145.207031 C 130.554688 142.5 123.941406 144.707031 121.234375 150.128906 L 120.453125 151.695312 L 90.21875 136.601562 C 74.90625 128.957031 65.714844 116.628906 63.960938 103.171875 L 63.917969 102.386719 C 63.574219 96.007812 64.949219 89.664062 68.007812 83.539062 Z M 151.894531 167.683594 L 140.039062 191.4375 L 120.121094 181.496094 L 131.980469 157.742188 Z M 186.527344 258.199219 L 38.824219 184.46875 C 32.320312 181.222656 29.667969 173.292969 32.910156 166.792969 L 55.914062 120.714844 C 61.433594 131.878906 71.132812 141.609375 84.410156 148.234375 L 114.648438 163.328125 L 107.578125 177.488281 C 104.875 182.910156 107.085938 189.523438 112.507812 192.230469 L 136.035156 203.972656 C 141.460938 206.683594 148.074219 204.476562 150.78125 199.054688 L 157.847656 184.894531 L 188.085938 199.988281 C 201.363281 206.613281 214.96875 208.515625 227.210938 206.21875 L 204.210938 252.300781 C 200.964844 258.800781 193.03125 261.445312 186.527344 258.199219 Z M 186.527344 258.199219 "/>
</g>
</g>
</g>
</g>
</g>
<mask id="mask1">
  <g filter="url(#alpha)">
<rect x="0" y="0" width="1440" height="809.999993" style="fill:rgb(0%,0%,0%);fill-opacity:0.498;stroke:none;"/>
  </g>
</mask>
<clipPath id="clip7">
  <path d="M 16 37 L 278 37 L 278 276 L 16 276 Z M 16 37 "/>
</clipPath>
<clipPath id="clip8">
  <path d="M 92.363281 0.246094 L 302.402344 105.089844 L 210.957031 288.285156 L 0.917969 183.441406 Z M 92.363281 0.246094 "/>
</clipPath>
<clipPath id="clip9">
  <path d="M 92.363281 0.246094 L 302.402344 105.089844 L 210.957031 288.285156 L 0.917969 183.441406 Z M 92.363281 0.246094 "/>
</clipPath>
<clipPath id="clip10">
  <path d="M 92.363281 0.246094 L 302.148438 104.964844 L 210.84375 287.875 L 1.058594 183.15625 Z M 92.363281 0.246094 "/>
</clipPath>
<clipPath id="clip6">
  <rect x="0" y="0" width="304" height="290"/>
</clipPath>
<g id="surface8" clip-path="url(#clip6)">
<g clip-path="url(#clip7)" clip-rule="nonzero">
<g clip-path="url(#clip8)" clip-rule="nonzero">
<g clip-path="url(#clip9)" clip-rule="nonzero">
<g clip-path="url(#clip10)" clip-rule="nonzero">
<path style=" stroke:none;fill-rule:nonzero;fill:rgb(0%,0%,0%);fill-opacity:1;" d="M 263.125 124.617188 L 241.644531 113.898438 C 241.261719 108.878906 238.425781 104.164062 233.734375 101.609375 L 233.898438 101.285156 C 240.59375 87.867188 235.121094 71.503906 221.695312 64.804688 L 172.816406 40.40625 C 159.390625 33.703125 143.023438 39.164062 136.328125 52.582031 L 136.167969 52.90625 C 131.304688 50.691406 125.832031 51.261719 121.589844 53.96875 L 100.113281 43.246094 C 87.269531 36.839844 71.613281 42.0625 65.207031 54.894531 L 54.28125 76.789062 C 50.335938 84.695312 48.394531 92.929688 48.5 101.308594 L 19.183594 160.042969 C 12.09375 174.242188 17.890625 191.566406 32.097656 198.660156 L 179.800781 272.386719 C 194.011719 279.480469 211.335938 273.699219 218.425781 259.5 L 247.742188 200.761719 C 254.503906 195.8125 259.921875 189.3125 263.867188 181.40625 L 274.796875 159.511719 C 281.199219 146.679688 275.964844 131.027344 263.125 124.617188 Z M 147.648438 64.867188 L 150.300781 59.554688 C 153.152344 53.839844 160.128906 51.511719 165.847656 54.367188 L 214.726562 78.765625 C 220.445312 81.621094 222.777344 88.59375 219.925781 94.308594 L 217.273438 99.621094 C 216.984375 100.199219 216.769531 100.792969 216.601562 101.394531 L 146.636719 66.472656 C 147.015625 65.976562 147.359375 65.445312 147.648438 64.867188 Z M 79.179688 61.871094 C 81.742188 56.738281 88.003906 54.648438 93.140625 57.210938 L 256.152344 138.582031 C 261.289062 141.144531 263.382812 147.40625 260.820312 152.539062 L 249.894531 174.433594 C 246.835938 180.558594 242.59375 185.46875 237.285156 189.027344 L 236.632812 189.464844 C 224.824219 196.15625 209.449219 196.21875 194.136719 188.578125 L 163.898438 173.484375 L 164.679688 171.917969 C 167.386719 166.496094 165.175781 159.882812 159.75 157.175781 L 136.222656 145.433594 C 130.800781 142.722656 124.183594 144.929688 121.480469 150.351562 L 120.695312 151.917969 L 90.460938 136.824219 C 75.148438 129.183594 65.957031 116.851562 64.207031 103.394531 L 64.164062 102.609375 C 63.820312 96.230469 65.195312 89.890625 68.253906 83.765625 Z M 152.136719 167.910156 L 140.28125 191.664062 L 120.367188 181.722656 L 132.222656 157.96875 Z M 186.773438 258.421875 L 39.066406 184.695312 C 32.5625 181.449219 29.910156 173.519531 33.15625 167.019531 L 56.15625 120.941406 C 61.679688 132.101562 71.378906 141.835938 84.65625 148.460938 L 114.890625 163.554688 L 107.824219 177.714844 C 105.117188 183.136719 107.328125 189.746094 112.753906 192.457031 L 136.28125 204.199219 C 141.703125 206.90625 148.320312 204.699219 151.023438 199.277344 L 158.09375 185.121094 L 188.328125 200.210938 C 201.605469 206.839844 215.210938 208.742188 227.453125 206.445312 L 204.453125 252.523438 C 201.207031 259.023438 193.277344 261.671875 186.773438 258.421875 Z M 186.773438 258.421875 "/>
</g>
</g>
</g>
</g>
</g>
<mask id="mask2">
  <g filter="url(#alpha)">
<rect x="0" y="0" width="1440" height="809.999993" style="fill:rgb(0%,0%,0%);fill-opacity:0.498;stroke:none;"/>
  </g>
</mask>
<clipPath id="clip12">
  <path d="M 16 38 L 278 38 L 278 276 L 16 276 Z M 16 38 "/>
</clipPath>
<clipPath id="clip13">
  <path d="M 92.585938 0.8125 L 302.621094 105.65625 L 211.179688 288.851562 L 1.140625 184.007812 Z M 92.585938 0.8125 "/>
</clipPath>
<clipPath id="clip14">
  <path d="M 92.585938 0.8125 L 302.621094 105.65625 L 211.179688 288.851562 L 1.140625 184.007812 Z M 92.585938 0.8125 "/>
</clipPath>
<clipPath id="clip15">
  <path d="M 92.585938 0.8125 L 302.371094 105.53125 L 211.066406 288.441406 L 1.28125 183.722656 Z M 92.585938 0.8125 "/>
</clipPath>
<clipPath id="clip11">
  <rect x="0" y="0" width="304" height="290"/>
</clipPath>
<g id="surface11" clip-path="url(#clip11)">
<g clip-path="url(#clip12)" clip-rule="nonzero">
<g clip-path="url(#clip13)" clip-rule="nonzero">
<g clip-path="url(#clip14)" clip-rule="nonzero">
<g clip-path="url(#clip15)" clip-rule="nonzero">
<path style=" stroke:none;fill-rule:nonzero;fill:rgb(0%,0%,0%);fill-opacity:1;" d="M 263.347656 125.183594 L 241.867188 114.464844 C 241.484375 109.445312 238.648438 104.730469 233.957031 102.175781 L 234.117188 101.851562 C 240.816406 88.4375 235.34375 72.070312 221.917969 65.371094 L 173.039062 40.972656 C 159.613281 34.269531 143.246094 39.734375 136.550781 53.148438 L 136.390625 53.472656 C 131.527344 51.257812 126.054688 51.828125 121.8125 54.535156 L 100.335938 43.8125 C 87.492188 37.40625 71.835938 42.628906 65.429688 55.460938 L 54.503906 77.355469 C 50.554688 85.261719 48.617188 93.496094 48.722656 101.875 L 19.40625 160.609375 C 12.316406 174.8125 18.113281 192.132812 32.320312 199.226562 L 180.023438 272.953125 C 194.234375 280.046875 211.558594 274.265625 218.648438 260.066406 L 247.964844 201.332031 C 254.726562 196.382812 260.144531 189.878906 264.089844 181.976562 L 275.019531 160.082031 C 281.421875 147.246094 276.1875 131.59375 263.347656 125.183594 Z M 147.871094 65.4375 L 150.523438 60.121094 C 153.375 54.40625 160.351562 52.078125 166.070312 54.933594 L 214.949219 79.332031 C 220.667969 82.1875 223 89.160156 220.148438 94.875 L 217.496094 100.1875 C 217.207031 100.765625 216.992188 101.363281 216.824219 101.960938 L 146.859375 67.039062 C 147.238281 66.542969 147.582031 66.011719 147.871094 65.4375 Z M 79.402344 62.4375 C 81.964844 57.304688 88.226562 55.214844 93.363281 57.777344 L 256.375 139.148438 C 261.511719 141.710938 263.605469 147.972656 261.042969 153.105469 L 250.117188 175 C 247.058594 181.125 242.816406 186.035156 237.507812 189.59375 L 236.855469 190.03125 C 225.046875 196.722656 209.671875 196.785156 194.359375 189.144531 L 164.121094 174.050781 L 164.902344 172.484375 C 167.609375 167.0625 165.398438 160.449219 159.972656 157.742188 L 136.445312 146 C 131.023438 143.289062 124.40625 145.496094 121.703125 150.917969 L 120.917969 152.484375 L 90.683594 137.394531 C 75.371094 129.75 66.179688 117.417969 64.429688 103.960938 L 64.386719 103.179688 C 64.042969 96.796875 65.417969 90.457031 68.472656 84.332031 Z M 152.359375 168.476562 L 140.503906 192.230469 L 120.589844 182.289062 L 132.445312 158.535156 Z M 186.996094 258.992188 L 39.289062 185.261719 C 32.785156 182.015625 30.132812 174.085938 33.378906 167.585938 L 56.378906 121.507812 C 61.902344 132.671875 71.601562 142.402344 84.878906 149.027344 L 115.113281 164.121094 L 108.046875 178.28125 C 105.339844 183.703125 107.550781 190.316406 112.976562 193.023438 L 136.503906 204.765625 C 141.925781 207.472656 148.542969 205.265625 151.246094 199.84375 L 158.316406 185.6875 L 188.550781 200.777344 C 201.828125 207.40625 215.433594 209.308594 227.675781 207.011719 L 204.675781 253.089844 C 201.429688 259.589844 193.5 262.238281 186.996094 258.992188 Z M 186.996094 258.992188 "/>
</g>
</g>
</g>
</g>
</g>
<mask id="mask3">
  <g filter="url(#alpha)">
<rect x="0" y="0" width="1440" height="809.999993" style="fill:rgb(0%,0%,0%);fill-opacity:0.498;stroke:none;"/>
  </g>
</mask>
<clipPath id="clip17">
  <path d="M 16 37 L 278 37 L 278 276 L 16 276 Z M 16 37 "/>
</clipPath>
<clipPath id="clip18">
  <path d="M 92.707031 0 L 302.746094 104.84375 L 211.300781 288.039062 L 1.261719 183.195312 Z M 92.707031 0 "/>
</clipPath>
<clipPath id="clip19">
  <path d="M 92.707031 0 L 302.746094 104.84375 L 211.300781 288.039062 L 1.261719 183.195312 Z M 92.707031 0 "/>
</clipPath>
<clipPath id="clip20">
  <path d="M 92.707031 0 L 302.492188 104.71875 L 211.1875 287.632812 L 1.402344 182.914062 Z M 92.707031 0 "/>
</clipPath>
<clipPath id="clip16">
  <rect x="0" y="0" width="304" height="290"/>
</clipPath>
<g id="surface14" clip-path="url(#clip16)">
<g clip-path="url(#clip17)" clip-rule="nonzero">
<g clip-path="url(#clip18)" clip-rule="nonzero">
<g clip-path="url(#clip19)" clip-rule="nonzero">
<g clip-path="url(#clip20)" clip-rule="nonzero">
<path style=" stroke:none;fill-rule:nonzero;fill:rgb(0%,0%,0%);fill-opacity:1;" d="M 263.46875 124.375 L 241.988281 113.652344 C 241.605469 108.632812 238.769531 103.917969 234.078125 101.363281 L 234.238281 101.039062 C 240.9375 87.625 235.464844 71.261719 222.039062 64.558594 L 173.160156 40.160156 C 159.734375 33.460938 143.367188 38.921875 136.671875 52.335938 L 136.511719 52.660156 C 131.648438 50.445312 126.175781 51.015625 121.933594 53.722656 L 100.457031 43.003906 C 87.613281 36.59375 71.957031 41.816406 65.550781 54.648438 L 54.625 76.542969 C 50.675781 84.449219 48.738281 92.6875 48.84375 101.0625 L 19.527344 159.800781 C 12.4375 174 18.234375 191.320312 32.441406 198.414062 L 180.144531 272.144531 C 194.355469 279.234375 211.679688 273.453125 218.769531 259.253906 L 248.085938 200.519531 C 254.847656 195.570312 260.265625 189.066406 264.210938 181.164062 L 275.140625 159.269531 C 281.542969 146.4375 276.308594 130.785156 263.46875 124.375 Z M 147.992188 64.625 L 150.644531 59.3125 C 153.496094 53.59375 160.472656 51.269531 166.191406 54.125 L 215.070312 78.523438 C 220.789062 81.375 223.121094 88.347656 220.269531 94.066406 L 217.617188 99.378906 C 217.328125 99.957031 217.113281 100.550781 216.945312 101.152344 L 146.980469 66.226562 C 147.359375 65.730469 147.703125 65.203125 147.992188 64.625 Z M 79.523438 61.625 C 82.085938 56.492188 88.347656 54.402344 93.484375 56.964844 L 256.496094 138.335938 C 261.632812 140.898438 263.726562 147.160156 261.164062 152.292969 L 250.238281 174.1875 C 247.179688 180.316406 242.9375 185.226562 237.628906 188.785156 L 236.976562 189.222656 C 225.167969 195.910156 209.792969 195.976562 194.480469 188.332031 L 164.242188 173.238281 L 165.023438 171.671875 C 167.730469 166.25 165.519531 159.640625 160.09375 156.929688 L 136.566406 145.1875 C 131.144531 142.480469 124.527344 144.6875 121.824219 150.109375 L 121.039062 151.675781 L 90.804688 136.582031 C 75.492188 128.9375 66.300781 116.609375 64.550781 103.152344 L 64.507812 102.367188 C 64.164062 95.988281 65.539062 89.644531 68.597656 83.519531 Z M 152.480469 167.664062 L 140.625 191.417969 L 120.710938 181.476562 L 132.566406 157.722656 Z M 187.117188 258.179688 L 39.410156 184.449219 C 32.90625 181.203125 30.253906 173.273438 33.5 166.773438 L 56.5 120.695312 C 62.023438 131.859375 71.722656 141.589844 85 148.214844 L 115.234375 163.308594 L 108.167969 177.46875 C 105.460938 182.890625 107.671875 189.503906 113.097656 192.210938 L 136.625 203.953125 C 142.046875 206.664062 148.664062 204.457031 151.367188 199.035156 L 158.4375 184.875 L 188.671875 199.96875 C 201.949219 206.59375 215.554688 208.496094 227.796875 206.203125 L 204.796875 252.28125 C 201.550781 258.78125 193.621094 261.425781 187.117188 258.179688 Z M 187.117188 258.179688 "/>
</g>
</g>
</g>
</g>
</g>
<mask id="mask4">
  <g filter="url(#alpha)">
<rect x="0" y="0" width="1440" height="809.999993" style="fill:rgb(0%,0%,0%);fill-opacity:0.498;stroke:none;"/>
  </g>
</mask>
<clipPath id="clip22">
  <path d="M 16 37 L 278 37 L 278 276 L 16 276 Z M 16 37 "/>
</clipPath>
<clipPath id="clip23">
  <path d="M 92.4375 0.695312 L 302.472656 105.539062 L 211.027344 288.734375 L 0.992188 183.890625 Z M 92.4375 0.695312 "/>
</clipPath>
<clipPath id="clip24">
  <path d="M 92.4375 0.695312 L 302.472656 105.539062 L 211.027344 288.734375 L 0.992188 183.890625 Z M 92.4375 0.695312 "/>
</clipPath>
<clipPath id="clip25">
  <path d="M 92.4375 0.695312 L 302.222656 105.414062 L 210.917969 288.324219 L 1.132812 183.609375 Z M 92.4375 0.695312 "/>
</clipPath>
<clipPath id="clip21">
  <rect x="0" y="0" width="304" height="290"/>
</clipPath>
<g id="surface17" clip-path="url(#clip21)">
<g clip-path="url(#clip22)" clip-rule="nonzero">
<g clip-path="url(#clip23)" clip-rule="nonzero">
<g clip-path="url(#clip24)" clip-rule="nonzero">
<g clip-path="url(#clip25)" clip-rule="nonzero">
<path style=" stroke:none;fill-rule:nonzero;fill:rgb(0%,0%,0%);fill-opacity:1;" d="M 263.199219 125.070312 L 241.71875 114.347656 C 241.332031 109.328125 238.5 104.613281 233.808594 102.058594 L 233.96875 101.734375 C 240.667969 88.320312 235.195312 71.953125 221.769531 65.253906 L 172.890625 40.855469 C 159.464844 34.152344 143.097656 39.617188 136.402344 53.03125 L 136.238281 53.355469 C 131.378906 51.140625 125.90625 51.710938 121.664062 54.417969 L 100.1875 43.699219 C 87.34375 37.289062 71.6875 42.511719 65.28125 55.34375 L 54.351562 77.238281 C 50.40625 85.144531 48.46875 93.382812 48.574219 101.757812 L 19.257812 160.496094 C 12.167969 174.695312 17.964844 192.015625 32.171875 199.109375 L 179.875 272.835938 C 194.085938 279.929688 211.410156 274.148438 218.496094 259.949219 L 247.816406 201.214844 C 254.578125 196.265625 259.996094 189.761719 263.941406 181.859375 L 274.867188 159.964844 C 281.273438 147.132812 276.039062 131.476562 263.199219 125.070312 Z M 147.722656 65.320312 L 150.375 60.003906 C 153.226562 54.289062 160.203125 51.960938 165.921875 54.816406 L 214.800781 79.214844 C 220.519531 82.070312 222.851562 89.042969 219.996094 94.757812 L 217.34375 100.074219 C 217.058594 100.652344 216.84375 101.246094 216.671875 101.84375 L 146.710938 66.921875 C 147.085938 66.425781 147.433594 65.898438 147.722656 65.320312 Z M 79.253906 62.320312 C 81.816406 57.1875 88.078125 55.097656 93.214844 57.660156 L 256.226562 139.03125 C 261.363281 141.59375 263.457031 147.855469 260.894531 152.988281 L 249.96875 174.882812 C 246.910156 181.011719 242.667969 185.921875 237.359375 189.480469 L 236.707031 189.914062 C 224.898438 196.605469 209.519531 196.671875 194.210938 189.027344 L 163.972656 173.933594 L 164.753906 172.367188 C 167.460938 166.945312 165.25 160.332031 159.824219 157.625 L 136.296875 145.882812 C 130.875 143.175781 124.257812 145.382812 121.550781 150.800781 L 120.769531 152.371094 L 90.535156 137.277344 C 75.222656 129.632812 66.03125 117.304688 64.28125 103.847656 L 64.238281 103.0625 C 63.890625 96.683594 65.265625 90.339844 68.324219 84.214844 Z M 152.210938 168.359375 L 140.355469 192.113281 L 120.441406 182.171875 L 132.296875 158.417969 Z M 186.84375 258.875 L 39.140625 185.144531 C 32.636719 181.898438 29.984375 173.96875 33.230469 167.46875 L 56.230469 121.390625 C 61.753906 132.554688 71.453125 142.285156 84.726562 148.910156 L 114.964844 164.003906 L 107.894531 178.164062 C 105.191406 183.585938 107.402344 190.199219 112.828125 192.90625 L 136.351562 204.648438 C 141.777344 207.355469 148.394531 205.148438 151.097656 199.730469 L 158.167969 185.570312 L 188.402344 200.664062 C 201.679688 207.289062 215.285156 209.191406 227.527344 206.894531 L 204.527344 252.976562 C 201.28125 259.476562 193.347656 262.121094 186.84375 258.875 Z M 186.84375 258.875 "/>
</g>
</g>
</g>
</g>
</g>
</defs>
<g id="surface1">
<use xlink:href="#surface5" transform="matrix(1,0,0,1,70,30)" mask="url(#mask0)"/>
<use xlink:href="#surface8" transform="matrix(1,0,0,1,635,174)" mask="url(#mask1)"/>
<use xlink:href="#surface11" transform="matrix(1,0,0,1,80,504)" mask="url(#mask2)"/>
<use xlink:href="#surface14" transform="matrix(1,0,0,1,1056,0.000000000000039746)" mask="url(#mask3)"/>
<use xlink:href="#surface17" transform="matrix(1,0,0,1,1074,462)" mask="url(#mask4)"/>
</g>
</svg>
