<svg width="122" height="74" viewBox="0 0 122 74" fill="none" xmlns="http://www.w3.org/2000/svg">
<path d="M118.516 16.9875L65.3951 0.667006C62.5005 -0.222335 59.3773 -0.222335 56.4846 0.667006L3.36217 16.9875C-1.12072 18.3643 -1.12072 24.2926 3.36217 25.6695L12.6231 28.5146C10.5912 31.0265 9.34189 34.0906 9.21811 37.4461C7.3842 38.4973 6.09303 40.3941 6.09303 42.6584C6.09303 44.7113 7.17472 46.4386 8.73249 47.5431L3.87063 69.4205C3.44786 71.323 4.89518 73.1283 6.84336 73.1283H17.5288C19.4789 73.1283 20.9262 71.323 20.5034 69.4205L15.6415 47.5431C17.1993 46.4386 18.281 44.7113 18.281 42.6584C18.281 40.455 17.0489 38.6116 15.2988 37.5413C15.4435 34.681 16.9061 32.152 19.2389 30.5485L56.4827 41.9919C58.208 42.5213 61.5178 43.1821 65.3932 41.9919L118.516 25.6714C123 24.2926 123 18.3662 118.516 16.9875ZM67.1833 47.8173C61.7502 49.4856 57.1206 48.5638 54.6926 47.8173L27.0754 39.3334L24.375 60.9403C24.375 67.6723 40.745 73.1283 60.9389 73.1283C81.1329 73.1283 97.5028 67.6723 97.5028 60.9403L94.8024 39.3315L67.1833 47.8173Z" fill="black"/>
</svg>
